<svg width="15" height="33" viewBox="0 0 15 33" fill="none" xmlns="http://www.w3.org/2000/svg">
<path d="M0.346822 31.9637C0.241252 31.7716 0.114567 31.4942 0.0723389 31.3377C0.00195863 31.1171 -0.0121176 28.2359 0.00899554 5.58458L0.199022 5.17908C0.311631 4.95142 0.52981 4.6384 0.691684 4.48189C0.860597 4.31827 1.05766 4.17598 1.13508 4.15464C1.2125 4.1333 1.28288 4.12618 1.29696 4.14041C1.30399 4.15464 1.28288 4.24713 1.24065 4.35384C1.19842 4.48189 1.17027 7.24217 1.17027 12.3216C1.17027 18.9805 1.18435 20.2041 1.28288 20.8444C1.33918 21.257 1.45179 21.8474 1.53625 22.1605C1.61367 22.4735 1.78962 23.0355 2.18375 24.0813L2.26117 29.9291L2.44416 30.2065C2.54269 30.3559 2.73975 30.5409 2.88051 30.6049C3.11277 30.7187 3.4154 30.733 5.89983 30.733C8.47575 30.733 8.68689 30.7401 8.9473 30.8681C9.10213 30.9393 9.53145 31.1029 9.89743 31.2238C10.2634 31.3519 10.8687 31.5155 11.2347 31.5867C11.6006 31.6649 12.2341 31.7645 12.6423 31.8072C13.0505 31.8499 13.6205 31.8712 13.9091 31.8499C14.1977 31.8285 14.5073 31.793 14.5918 31.7716C14.6833 31.7503 14.7537 31.7503 14.7537 31.7787C14.7537 31.8143 14.6481 31.9779 14.5214 32.1558C14.3877 32.3336 14.0921 32.5898 13.4587 32.9739L7.64526 32.9953C2.68345 33.0095 1.78962 32.9953 1.52217 32.9028C1.34622 32.8459 1.05766 32.6894 0.867636 32.5471C0.684648 32.4119 0.452393 32.1487 0.346822 31.9637Z" fill="#70B2E2"/>
<path d="M1.55734 22.2316C1.4588 21.883 1.33916 21.2854 1.28285 20.9155C1.20544 20.3606 1.18432 18.8382 1.17728 12.3999C1.17024 7.17104 1.19136 4.48902 1.24063 4.36096C1.29693 4.21157 1.28989 4.14754 1.22655 4.11197C1.17024 4.08351 1.29693 4.01949 1.52215 3.95546C1.85997 3.85586 2.58489 3.84163 7.50447 3.84163C11.2769 3.84163 13.1912 3.87009 13.3812 3.91989C13.5361 3.96258 13.8035 4.08351 13.9795 4.19734C14.1554 4.30405 14.3877 4.51748 14.5003 4.67399C14.6199 4.82338 14.7748 5.0866 14.8522 5.26446C15 5.58459 15 5.62728 15 18.3898L15 18.39C15 28.3284 14.9789 31.2523 14.9155 31.4444C14.8381 31.6649 14.7818 31.7076 14.4721 31.7859C14.2821 31.8286 13.9091 31.8712 13.6487 31.8712C13.3812 31.8712 12.8815 31.8357 12.5367 31.8001C12.1918 31.7574 11.6006 31.6649 11.2346 31.5867C10.8687 31.5155 10.2775 31.3519 9.93259 31.2381C9.58773 31.1243 9.17249 30.9678 8.73613 30.7686L10.3901 30.733C11.9947 30.6974 12.051 30.6903 12.2551 30.5338C12.3748 30.4413 12.5226 30.2777 12.5859 30.1781C12.7056 30.0002 12.7126 29.2959 12.7197 6.93627L12.5578 6.69439C12.4663 6.55923 12.3044 6.38137 12.1988 6.30312C12.0018 6.15372 11.9525 6.15372 7.50447 6.15372C3.05644 6.15372 3.00717 6.15372 2.81011 6.30312C2.70454 6.38137 2.54266 6.55923 2.28929 6.93628L2.28929 15.0819C2.28225 19.5638 2.26114 23.4339 2.19076 24.1524L1.95851 23.5122C1.82478 23.1636 1.64883 22.5802 1.55734 22.2316Z" fill="#95C8EC"/>
<path d="M4.42182 3.85584C4.11918 3.86295 3.8447 3.83449 3.81655 3.79892C3.7884 3.76335 3.77432 3.05906 3.80951 0.73274L4.00658 0.476632C4.11215 0.334349 4.30217 0.163611 4.42182 0.106698C4.61888 0.0142142 5.09747 -1.41239e-05 7.50448 -1.42291e-05C9.81999 -1.43303e-05 10.3971 0.014214 10.566 0.0995833C10.6786 0.156496 10.8616 0.298778 10.9742 0.419718C11.0798 0.540658 11.1713 0.704283 11.1854 0.782538C11.1924 0.860794 11.1994 0.967505 11.1994 1.0173C11.1994 1.08133 10.5801 1.10979 8.44053 1.13824C5.78016 1.17381 5.67459 1.18093 5.48456 1.32321C5.37899 1.40147 5.21712 1.57932 5.12562 1.71449C4.97782 1.93503 4.96375 2.03462 4.97079 3.84161L4.42182 3.85584Z" fill="#3D82C4"/>
<path d="M11.1994 3.80604L8.08864 3.82739L4.97079 3.84161L4.97079 2.90255C4.96375 2.03463 4.97783 1.93503 5.12563 1.71449C5.21712 1.57933 5.379 1.40147 5.48457 1.32322C5.67459 1.18093 5.78016 1.17382 11.2346 1.10268L11.1994 3.80604Z" fill="#57A0D7"/>
</svg>
