<svg width="608" height="600" viewBox="0 0 608 738" fill="none" xmlns="http://www.w3.org/2000/svg">
<path fill-rule="evenodd" clip-rule="evenodd" d="M109.822 443.437L116.189 442.641L183.833 461.748V468.913L145.634 460.951L106.639 444.233L109.822 443.437ZM549.906 454.583L555.476 446.621L561.843 448.214V449.01L557.068 454.583L552.293 456.971L549.906 454.583ZM409.843 492L541.948 460.951L543.539 462.544L531.602 470.505L514.094 480.058L435.309 494.388L471.12 506.33L467.937 511.107L462.367 516.68L409.843 502.35V492ZM198.157 472.097L199.749 466.524L269.78 486.427L263.414 491.204L198.157 472.097ZM59.6859 494.388L450.429 566.039L449.634 574V577.184L448.838 602.66L64.4608 534.194L59.6859 520.66V494.388ZM363.686 502.35L379.602 499.165V507.126L366.869 510.311L363.686 502.35Z" fill="#315186"/>
<path d="M74.0105 268.291L68.4398 269.087L74.0105 271.476V268.291Z" fill="#873D1A"/>
<path d="M500.565 281.825L487.832 282.621H487.037L483.058 290.583L497.382 292.175L506.932 281.825H500.565Z" fill="#873D1A"/>
<path d="M440.084 295.359L341.403 290.583V293.767L376.419 297.748L433.717 300.136L440.084 299.34V295.359Z" fill="#873D1A"/>
<path d="M38.199 307.301V336.757L38.9948 341.534L42.178 352.68L492.607 370.194L493.403 327.204L38.199 307.301Z" fill="#873D1A"/>
<path d="M472.712 53.3398L471.916 59.7087L527.623 85.1845L528.419 84.3883V83.5922V79.6116V78.8155L472.712 53.3398Z" fill="#F1CFA8"/>
<path d="M318.325 148.078L317.529 149.67V153.65L540.356 175.942L541.152 175.146V171.165L318.325 148.078Z" fill="#F1CFA8"/>
<path d="M541.152 187.883L319.12 168.777L321.508 180.718L510.911 202.214L533.194 206.194L543.539 204.602L542.743 195.845L541.152 187.883Z" fill="#F1CFA8"/>
<path d="M410.639 234.854V241.223L519.665 242.816V236.447L410.639 234.854Z" fill="#F1CFA8"/>
<path d="M521.257 258.738H410.639V261.922L412.23 271.476L499.77 275.456L523.644 273.068L522.848 268.291L521.257 258.738Z" fill="#F1CFA8"/>
<path d="M519.665 319.243L497.382 322.427V328.796L520.461 327.204V325.612L519.665 319.243Z" fill="#F1CFA8"/>
<path d="M522.848 344.718L496.586 347.903V363.029L508.524 363.825L522.848 344.718Z" fill="#F1CFA8"/>
<path d="M549.11 413.184L525.236 416.369L526.031 422.738H547.518L549.11 413.184Z" fill="#F1CFA8"/>
<path d="M497.382 419.553L352.545 440.252V443.437V448.214L497.382 429.107V422.738V419.553Z" fill="#F1CFA8"/>
<path d="M532.398 442.641L526.827 443.437V451.398L537.969 448.214L532.398 442.641Z" fill="#F1CFA8"/>
<path d="M498.974 445.825L351.749 468.913L346.178 492.796L515.686 454.583L498.974 445.825Z" fill="#F1CFA8"/>
<path d="M541.948 518.272L453.613 576.388L452.817 577.184V588.33L542.743 527.029L541.948 518.272Z" fill="#F1CFA8"/>
<path d="M512.503 572.408L452.817 608.233L456.796 624.951L512.503 572.408Z" fill="#F1CFA8"/>
<path d="M588.105 575.592L383.581 691.029L382.785 699.786L588.901 581.961L588.105 575.592Z" fill="#F1CFA8"/>
<path d="M68.4398 193.456L65.2566 196.641L63.665 199.825L62.8692 202.214L62.0733 209.379L409.843 210.971V204.602L70.0315 193.456H68.4398Z" fill="#D2812A"/>
<path d="M59.6859 228.485L60.4817 246.796L61.2775 251.573L64.4608 260.33L407.456 263.515L410.639 261.922V258.738V249.184L59.6859 228.485Z" fill="#D2812A"/>
<path d="M514.89 281.029L506.932 281.825L497.382 292.175L494.199 303.32V314.466L493.403 327.204L492.607 370.194L493.403 379.748L495.791 386.913L506.932 381.34V375.767L499.77 374.971L496.586 363.029V347.903L497.382 328.796V322.427L498.178 316.058L501.361 304.913L506.932 292.175L515.686 282.621L514.89 281.029Z" fill="#D2812A"/>
<path d="M475.895 105.087L519.665 129.767L528.419 130.563L526.827 120.214V119.417V117.029L527.623 85.1845L471.916 59.7087L475.895 105.087Z" fill="#F6DABD"/>
<path d="M317.529 153.65L318.325 167.981L319.12 168.777L541.152 187.883V185.495V179.922V179.126L540.356 175.942L317.529 153.65Z" fill="#F6DABD"/>
<path d="M410.639 241.223V249.184V258.738H521.257V256.35L519.665 242.816L410.639 241.223Z" fill="#F6DABD"/>
<path d="M520.461 327.204L497.382 328.796L496.586 347.903L522.848 344.718L525.236 343.922L521.257 331.184L520.461 327.204Z" fill="#F6DABD"/>
<path d="M526.031 422.738L526.827 430.699L532.398 442.641L537.969 448.214L547.518 422.738H526.031Z" fill="#F6DABD"/>
<path d="M497.382 429.107L352.545 448.214L351.749 468.913L498.974 445.825L497.382 429.107Z" fill="#F6DABD"/>
<path d="M542.743 527.029L452.817 588.33L449.634 605.845V609.825L452.817 608.233L512.503 572.408L545.131 535.786L542.743 527.029Z" fill="#F6DABD"/>
<path d="M588.901 581.961L382.785 699.786V702.971L387.56 725.262L591.288 589.126L590.492 585.942L588.901 581.961Z" fill="#F6DABD"/>
<path d="M3.18325 524.641L0.795811 531.806L0 536.582V566.835L0.795811 569.223L94.7016 601.864L88.3351 556.485L69.2356 546.932L3.18325 524.641Z" fill="#593678"/>
<path d="M120.168 615.398L370.052 710.136L363.686 662.369L203.728 589.922L245.906 594.699V589.922L137.675 566.835L171.099 589.922L120.168 615.398Z" fill="#593678"/>
<path d="M478.283 0V0.796116L471.916 14.3301L32.6283 35.0291L27.8534 62.8932L461.571 56.5243L467.141 75.6311L468.733 94.7379L475.895 111.456L505.34 127.379L519.665 129.767L475.895 105.087L471.916 59.7087L472.712 53.3398L473.508 43.7864L474.304 35.8252L475.895 27.068L479.874 11.1456L547.518 63.6893L548.314 58.1165L526.827 36.6214L525.236 35.0291L523.644 33.4369L522.052 31.8447L521.257 31.0485L498.178 9.5534L489.424 1.59223L478.283 0Z" fill="#A1B731"/>
<path fill-rule="evenodd" clip-rule="evenodd" d="M506.932 50.1553L523.644 50.9515L532.398 65.2815L530.806 70.8544H530.011L526.031 67.6699L507.728 53.3398L506.932 50.1553ZM413.026 210.971L490.22 201.417L510.911 202.214L533.194 206.194V206.99L531.602 210.175L523.644 214.155L522.052 218.932L413.026 210.971ZM501.361 304.913L506.932 292.175L516.482 296.155L513.298 300.932L501.361 304.913ZM543.539 371.786L540.356 366.214H542.744L555.477 372.583L558.66 379.748V381.34L559.456 391.689L560.251 406.816L559.456 423.534V427.515L558.66 433.883L557.864 437.068V437.864L557.068 441.049L555.477 446.621L549.906 454.583L541.948 460.951L409.843 492L379.602 499.165L363.686 502.349L269.78 486.427L199.749 466.524L183.833 461.748L116.189 442.641L110.618 440.252L103.456 438.66L101.068 437.864L97.8849 437.068L90.7226 434.68L78.7854 431.495L73.2147 425.922L74.0105 422.738L351.749 499.961L541.948 455.379L543.539 371.786ZM506.932 381.34L523.644 384.524L506.136 396.466L483.058 399.65L352.545 414.777H347.77L285.696 387.709L306.388 390.893L362.89 393.282L385.969 390.893L455.204 385.32L495.791 386.913L506.932 381.34ZM91.5184 381.34L190.995 397.262L168.712 415.573L162.346 420.349L90.7226 410V408.408L91.5184 390.097V381.34ZM532.398 472.893L551.497 462.544V463.34L549.11 468.913L544.335 483.243L459.979 535.786L469.529 513.495L471.12 511.107L498.178 493.592L503.749 490.408L532.398 472.893ZM530.806 567.631L599.246 533.398L598.45 535.786L596.859 538.175V538.971L595.267 541.359L594.471 544.544L592.88 547.728H592.084L543.539 573.204L524.44 584.349H518.869L515.686 582.757L518.073 579.573L522.848 574.796L530.806 567.631ZM376.419 666.349L420.984 624.155L440.88 628.136L387.56 664.757L376.419 666.349Z" fill="#BC7948"/>
<path d="M475.895 0.796112L448.042 1.59223L445.654 2.38835L388.356 4.77669L385.969 5.57281L358.911 6.36893L356.524 7.16504H342.995L325.487 8.75728L299.225 9.55339L296.838 10.3495L268.984 11.1456L265.801 11.9417L244.314 12.7379L471.916 14.3301L478.283 0.796112H475.895Z" fill="#838C18"/>
<path d="M467.141 75.6311L28.6492 83.5922V90.7573L29.445 95.534L31.8324 105.087L468.733 94.7379L467.141 75.6311Z" fill="#838C18"/>
<path d="M238.743 12.7379L236.356 13.534L154.387 17.5146L145.633 18.3107L73.2146 21.4952L54.1152 23.0874L32.6283 35.0291L471.916 14.3301L244.314 12.7379H238.743Z" fill="#91A326"/>
<path d="M461.571 56.5243L27.8534 62.8932L28.6492 83.5922L467.141 75.6311L461.571 56.5243Z" fill="#91A326"/>
<path fill-rule="evenodd" clip-rule="evenodd" d="M475.895 27.068L479.874 11.1456L523.644 50.9515L506.932 50.1553L487.037 36.6214L475.895 27.068ZM321.508 125.786L328.67 112.252L548.314 142.505L545.927 146.485L544.335 151.262L543.539 152.854L321.508 125.786ZM38.9948 292.175L41.3822 280.233H42.178L341.403 293.767L376.419 297.748L38.9948 295.359V292.175ZM515.686 282.621L526.031 281.029L522.848 293.767L516.482 296.155L506.932 292.175L515.686 282.621ZM433.717 300.136L440.084 299.34L494.199 303.32V314.466L433.717 300.136ZM514.89 370.194L534.785 365.417L540.356 366.214L543.539 371.786L546.723 380.544L523.644 384.524L506.932 381.34V375.767L514.89 370.194ZM89.9267 371.786L89.1309 367.01L222.031 377.359L285.696 387.709L347.77 414.777L194.974 397.262H190.995L91.5183 381.34L90.7225 376.563L89.9267 372.583V371.786ZM410.639 386.117L455.204 385.32L385.969 390.893L410.639 386.117Z" fill="#A6653D"/>
<path fill-rule="evenodd" clip-rule="evenodd" d="M54.1152 496.777L59.6858 495.981V520.66L18.3036 504.738V503.942L21.4869 503.146H24.6701L29.445 501.553L32.6282 500.757L44.5654 498.369H47.7487L53.3193 496.777H54.1152ZM541.948 508.718L544.335 503.942L551.497 504.738L559.456 506.33H560.251L564.23 507.126L572.984 508.718L580.942 510.311L585.717 511.107L589.696 511.903L592.88 512.699H593.675L597.654 513.495L600.838 514.291L603.225 515.087L608 523.049L548.314 550.913L553.885 538.971L545.131 535.786L542.743 527.029L541.948 518.272V508.718ZM0.795776 569.223L94.7015 601.864L88.3351 556.485L137.675 566.835L171.099 589.922L120.168 615.398L370.052 710.136L375.623 728.447L327.079 716.505L319.916 714.913H319.12L294.45 704.563L52.5235 610.621L43.7696 608.233L42.178 606.641L23.8743 601.068L0.795776 571.612V569.223ZM245.906 594.699V589.922L284.105 597.884V601.068L258.639 597.884L245.906 594.699Z" fill="#492C5F"/>
<path d="M475.895 27.068L474.304 35.8252L487.037 36.6214L475.895 27.068Z" fill="#D08F4B"/>
<path d="M61.2775 209.379L59.6859 228.485L410.639 249.184V241.223V234.854V228.485L521.257 223.709L522.052 218.932L413.026 210.971H409.843L62.0733 209.379H61.2775Z" fill="#D08F4B"/>
<path d="M347.77 414.777L194.974 397.262L350.953 424.33L352.545 419.553V414.777H347.77Z" fill="#D08F4B"/>
<path d="M90.7226 410L89.1309 412.388L87.5393 416.369L140.063 436.272L162.346 420.35L90.7226 410Z" fill="#D08F4B"/>
<path d="M544.335 483.243L459.979 535.786L458.387 539.767L457.592 546.136L543.539 492L544.335 483.243Z" fill="#D08F4B"/>
<path d="M592.084 547.728L543.539 573.204L591.288 550.913L592.084 550.117V547.728Z" fill="#D08F4B"/>
<path d="M515.686 582.757L509.319 589.126L518.869 584.35L515.686 582.757Z" fill="#D08F4B"/>
<path d="M387.56 664.757L376.419 666.35L374.827 675.903H384.377L387.56 666.35V664.757Z" fill="#D08F4B"/>
<path d="M60.4817 269.087L53.3194 269.883L42.178 277.845V280.233L341.403 293.767V290.583L74.0105 271.476L68.4398 269.087H60.4817Z" fill="#935031"/>
<path d="M483.058 290.583L440.084 295.359V299.34L494.199 303.32L497.382 292.175L483.058 290.583Z" fill="#935031"/>
<path d="M38.9948 295.359L38.199 307.301L493.403 327.204L494.199 314.466L433.717 300.136L376.419 297.748L38.9948 295.359Z" fill="#935031"/>
<path d="M474.304 35.8252L473.508 43.7864L497.382 54.1359L503.749 55.7282L507.728 53.3398L506.932 50.1553L487.037 36.6214L474.304 35.8252Z" fill="#DBA062"/>
<path d="M321.508 125.786L319.916 135.34L541.948 159.223L542.743 158.427V157.631L543.539 154.447V152.854L321.508 125.786Z" fill="#DBA062"/>
<path d="M416.209 193.456L409.843 204.602V210.971H413.026L490.22 201.417L416.209 193.456Z" fill="#DBA062"/>
<path d="M410.639 261.922L407.455 263.515L413.026 285.01H440.084V279.437L412.23 271.476L410.639 261.922Z" fill="#DBA062"/>
<path d="M525.236 273.864L514.89 281.029L515.686 282.621L526.031 281.029L526.827 273.864H525.236Z" fill="#DBA062"/>
<path d="M487.832 277.845V282.621L500.565 281.825L498.974 277.845H487.832Z" fill="#DBA062"/>
<path d="M449.633 279.437V285.01L477.487 283.417V279.437H449.633Z" fill="#DBA062"/>
<path d="M522.848 293.767L516.482 296.155L513.298 300.932L521.257 303.32L522.848 293.767Z" fill="#DBA062"/>
<path d="M546.722 380.544L523.644 384.524L506.136 396.466L549.11 394.078L546.722 380.544Z" fill="#DBA062"/>
<path d="M483.058 399.65L352.544 414.777V419.553L483.058 399.65Z" fill="#DBA062"/>
<path d="M190.995 397.262L168.712 415.573L352.544 443.437V440.252V430.699L350.953 424.33L194.974 397.262H190.995Z" fill="#DBA062"/>
<path d="M498.974 416.369L497.382 419.553V422.738H500.565L499.77 417.961L498.974 416.369Z" fill="#DBA062"/>
<path d="M518.869 584.349L509.319 589.126L504.544 592.311L496.586 600.272L495.791 601.864L524.44 584.349H518.869Z" fill="#DBA062"/>
<path d="M440.88 628.136L387.56 664.757V666.349L448.838 629.728L440.88 628.136Z" fill="#DBA062"/>
<path d="M374.827 675.903L374.031 686.252L382.785 685.456L384.377 680.68V675.903H374.827Z" fill="#DBA062"/>
<path fill-rule="evenodd" clip-rule="evenodd" d="M503.749 59.7087L497.382 54.1359L503.749 55.7282V59.7087ZM318.325 142.505L319.916 135.34L541.948 159.223L541.152 164.796L318.325 142.505ZM410.639 228.485L521.257 223.709V229.282L520.461 231.67L410.639 228.485ZM501.361 304.913L513.298 300.932L521.257 303.32V310.485L520.461 312.874L498.178 316.058L501.361 304.913ZM506.136 396.466L549.11 394.078V405.223L522.848 408.408L496.586 413.184L352.544 430.699L350.953 424.33L352.544 419.553L483.058 399.65L506.136 396.466ZM497.382 429.107V422.738H500.565L502.157 435.476L526.827 443.437V451.398L515.686 454.583L498.974 445.825L497.382 429.107ZM457.592 546.136L543.539 492L544.335 503.942L541.948 508.718L454.408 564.447L457.592 546.136ZM543.539 573.204L591.288 550.913V553.301L588.105 567.631L384.377 680.68V675.903L387.56 666.35L448.838 629.728L457.592 630.524L460.775 631.32L471.916 624.155L480.67 615.398L488.628 608.233L495.791 601.864L524.44 584.35L543.539 573.204ZM374.031 686.252L382.785 685.456L383.581 691.029L382.785 699.786V702.971H374.827L374.031 686.252Z" fill="#DCAE7F"/>
<path d="M70.8272 192.66L70.0314 193.456L409.843 204.602L416.209 193.456H346.974H323.099L93.1099 192.66H70.8272Z" fill="#B35B09"/>
<path d="M407.455 263.515L64.4607 260.33L67.6439 265.107L74.0104 268.291L413.026 285.01L407.455 263.515Z" fill="#B35B09"/>
<path d="M525.236 343.922L522.848 344.718L508.523 363.825L499.77 374.971L506.932 375.767L514.89 370.194L518.869 363.825L521.256 361.437L523.644 358.252L525.236 356.66L526.827 355.068L529.215 350.291L525.236 343.922Z" fill="#B35B09"/>
<path d="M522.848 408.408L496.586 413.184L498.974 416.369L499.77 417.961L524.44 414.777L522.848 408.408Z" fill="#B35B09"/>
<path d="M526.827 430.699L502.157 435.476L526.827 443.437L532.398 442.641L526.827 430.699Z" fill="#B35B09"/>
<path d="M74.0104 268.291V271.476L341.403 290.583L440.084 295.359L483.058 290.583L487.037 282.621L477.487 283.417L449.634 285.01H440.084H413.026L74.0104 268.291Z" fill="#773314"/>
<path d="M492.607 370.194L42.178 352.68L55.7068 364.621L58.89 365.417H64.4607L493.403 379.748L492.607 370.194Z" fill="#773314"/>
<path d="M518.869 363.825L514.89 370.194L534.785 365.417L528.419 364.621H527.623H522.848L518.869 363.825Z" fill="#773314"/>
<path d="M410.639 386.117L222.031 377.359L285.696 387.709L306.387 390.893L362.89 393.282L385.969 390.893L410.639 386.117Z" fill="#773314"/>
<path d="M79.5811 449.01L75.6021 450.602L70.0314 456.175L69.2356 459.359L263.414 494.388V491.204L198.157 472.097L183.832 468.913L145.633 460.951L81.9686 449.01H79.5811Z" fill="#576E9E"/>
<path d="M64.4607 471.301L61.2775 480.058V481.65L452.021 554.893L454.408 542.155L354.136 519.068L294.45 507.922L64.4607 471.301Z" fill="#576E9E"/>
<path d="M379.602 507.126L366.869 510.311V514.291L456.796 531.01L459.979 521.456L393.131 507.126H379.602Z" fill="#576E9E"/>
<path d="M547.518 63.6893L479.874 11.1456L523.644 50.9515L532.398 65.2816L545.927 66.0777L547.518 63.6893Z" fill="#616706"/>
<path d="M468.733 94.7379L31.8325 105.087L45.3613 120.214L47.7487 121.01H48.5446L54.1152 122.602L56.5027 123.398L58.8901 124.194L61.2775 124.99L63.665 125.786L73.2147 128.971H74.0105L75.6021 129.767H76.398L79.5812 130.563L81.9686 131.359L84.3561 132.155L86.7435 132.951L89.1309 133.748L92.3142 134.544L94.7016 135.34L97.0891 136.136L101.864 133.748L153.592 127.379L185.424 123.398L193.382 122.602L327.079 106.68L435.309 117.825L451.225 120.214L470.325 122.602L475.895 111.456L468.733 94.7379Z" fill="#616706"/>
<path d="M507.728 53.3398L503.749 55.7281V59.7087L526.031 67.6699L507.728 53.3398Z" fill="#EAB070"/>
<path d="M523.644 273.068L499.77 275.456L498.974 277.845L500.565 281.825H506.932L514.89 281.029L525.236 273.864L523.644 273.068Z" fill="#EAB070"/>
<path d="M487.833 277.845L477.487 279.437V283.417L487.037 282.621H487.833V277.845Z" fill="#EAB070"/>
<path d="M449.634 279.437H440.084V285.01H449.634V279.437Z" fill="#EAB070"/>
<path d="M168.712 415.573L162.346 420.35L140.063 436.272L346.178 492.796L351.749 468.913L352.545 448.214V443.437L168.712 415.573Z" fill="#EAB070"/>
<path d="M549.906 454.583L541.948 460.951L543.539 462.544L551.497 458.563L552.293 456.971L549.906 454.583Z" fill="#2B4479"/>
<path d="M183.832 461.748V468.913L198.157 472.097L199.749 466.524L183.832 461.748Z" fill="#2B4479"/>
<path d="M409.843 492L379.602 499.165V507.126H393.131L409.843 502.35V492Z" fill="#2B4479"/>
<path d="M64.4607 534.194L65.2565 538.971L68.4398 543.748L449.633 612.214V609.825V605.845L448.838 602.66L64.4607 534.194Z" fill="#2B4479"/>
<path d="M473.508 43.7864L472.712 53.3398L528.419 78.8155L530.01 70.8544L526.031 67.6699L503.749 59.7087L497.382 54.1359L473.508 43.7864Z" fill="#E8BE92"/>
<path d="M318.325 142.505V148.078L541.152 171.165V169.573V164.796L318.325 142.505Z" fill="#E8BE92"/>
<path d="M510.911 202.214L321.508 180.718L346.974 193.456H416.209L490.22 201.417L510.911 202.214Z" fill="#E8BE92"/>
<path d="M410.639 228.485V234.854L519.665 236.447L520.461 231.67L410.639 228.485Z" fill="#E8BE92"/>
<path d="M412.23 271.476L440.084 279.437H449.633H477.487L487.832 277.845H498.974L499.77 275.456L412.23 271.476Z" fill="#E8BE92"/>
<path d="M520.461 312.874L498.178 316.058L497.382 322.427L519.665 319.243L520.461 312.874Z" fill="#E8BE92"/>
<path d="M508.524 363.825L496.586 363.029L499.77 374.971L508.524 363.825Z" fill="#E8BE92"/>
<path d="M549.11 405.223L522.848 408.408L524.44 414.777L525.236 416.369L549.11 413.184V405.223Z" fill="#E8BE92"/>
<path d="M496.586 413.184L352.544 430.699V440.252L497.382 419.553L498.974 416.369L496.586 413.184Z" fill="#E8BE92"/>
<path d="M541.948 508.718L454.408 564.447L452.817 574L453.613 576.388L541.948 518.272V508.718Z" fill="#E8BE92"/>
<path d="M588.105 567.631L384.377 680.68L382.785 685.456L383.581 691.029L588.105 575.592V568.427V567.631Z" fill="#E8BE92"/>
<path d="M374.827 702.971L382.785 726.058L387.56 725.262L382.785 702.971H374.827Z" fill="#E8BE92"/>
<path d="M475.895 111.456L470.325 122.602L505.34 127.379L475.895 111.456Z" fill="#583705"/>
<path d="M72.7273 365.694L64.4607 365.417H71.623L72.7273 365.694L493.403 379.748L495.791 386.913L455.204 385.32L410.639 386.117L222.031 377.359L89.1309 367.01H79.5811L74.8062 366.214L72.7273 365.694Z" fill="#583705"/>
<path d="M4.77485 519.068L3.18323 524.641L69.2356 546.932L68.4398 543.748L65.2565 538.971L4.77485 519.068Z" fill="#653E87"/>
<path d="M608 523.049L548.314 550.913L533.99 563.651L530.806 567.631L599.246 533.398L603.225 530.214L605.612 528.621L608 523.049Z" fill="#653E87"/>
<path d="M363.686 662.369L370.052 710.136L375.623 728.447L377.215 736.408L381.194 738L422.576 716.505L478.283 679.884L487.037 674.311L518.073 654.408L604.021 596.291L382.785 726.058L374.827 702.971L374.031 686.252L374.827 675.903L376.419 666.35L420.984 624.155H409.047L395.518 629.728L322.304 613.806L284.105 601.068L258.639 597.884L363.686 658.388L203.728 589.922L363.686 662.369Z" fill="#653E87"/>
<path d="M327.079 106.68L193.382 122.602L185.424 123.398L153.592 127.379L101.864 133.748L97.089 136.136L93.1099 149.67V152.854L92.3141 155.243V160.019L317.529 134.544L327.079 106.68Z" fill="#3E7D7C"/>
<path d="M557.068 138.524L328.67 112.252L548.314 142.505L552.293 141.709L557.068 138.524Z" fill="#3E7D7C"/>
<path d="M316.733 179.126L91.5183 180.718V183.903L93.1099 192.66L323.099 193.456L316.733 179.126Z" fill="#3E7D7C"/>
<path d="M69.2356 459.359L66.8481 461.748L64.4607 471.301L294.45 507.922L263.414 494.388L69.2356 459.359Z" fill="#757AB1"/>
<path d="M366.869 514.291L354.136 519.068L454.408 542.155L455.204 539.767L456.796 531.01L366.869 514.291Z" fill="#757AB1"/>
<path d="M545.131 535.786L512.503 572.408L456.796 624.951L460.775 628.136L469.529 622.563L479.078 613.01L487.037 605.845L494.995 597.883L502.157 590.718L516.482 577.184L520.461 573.204L532.398 561.262L553.885 538.971L545.131 535.786Z" fill="#757AB1"/>
<path d="M412.106 708.86L387.56 725.262L382.785 726.058L412.106 708.86L591.288 589.126L601.633 590.718L604.021 596.291L412.106 708.86Z" fill="#757AB1"/>
<path fill-rule="evenodd" clip-rule="evenodd" d="M95.4974 445.825L103.456 444.233H106.639L145.634 460.951L81.9686 449.01L87.5393 447.417L90.7226 446.621L95.4974 445.825ZM471.12 506.33L435.309 494.388L514.094 480.058L503.749 487.223L497.382 491.204L471.12 506.33ZM59.6859 491.204L61.2775 481.65L452.021 554.893L450.429 566.039L59.6859 494.388V491.204ZM263.414 491.204L269.78 486.427L363.686 502.35L366.869 510.311V514.291L354.136 519.068L294.45 507.922L263.414 494.388V491.204ZM393.131 507.126L409.843 502.35L462.367 516.68L459.979 521.456L393.131 507.126Z" fill="#465E92"/>
<path d="M317.529 134.544L92.3141 160.019L91.5183 180.718L316.733 179.126L315.937 169.573L111.414 178.33L124.147 156.835L315.937 148.874L317.529 134.544Z" fill="#589190"/>
<path d="M111.414 178.33L315.937 169.573L318.325 167.981L317.529 153.65V149.67L315.937 148.874L124.147 156.835L111.414 178.33Z" fill="#73A6A5"/>
<path d="M68.4398 543.748L69.2356 546.932L88.3351 556.485L137.675 566.835L245.906 589.922L284.105 597.883L409.047 624.155H420.984L440.88 628.136L448.838 629.728L457.592 630.524L449.634 612.214L68.4398 543.748Z" fill="#153068"/>
<path d="M524.44 414.777L499.77 417.961L500.565 422.738L502.157 435.476L526.827 430.699L526.031 422.738L525.236 416.369L524.44 414.777Z" fill="#AA3711"/>
<path d="M18.3037 504.738L4.7749 516.68V519.068L65.2566 538.971L64.4608 534.194L59.6859 520.66L18.3037 504.738Z" fill="#714C8F"/>
<path d="M363.686 658.388L258.639 597.883L245.906 594.699L203.728 589.922L363.686 658.388Z" fill="#714C8F"/>
<path d="M42.1781 606.641L23.8744 601.068L36.6074 605.845L42.1781 606.641Z" fill="#3A214D"/>
<path d="M284.105 597.884V601.068L322.304 613.806L395.518 629.728L409.047 624.155L284.105 597.884Z" fill="#3A214D"/>
<path d="M294.45 704.563L52.5236 610.621L73.2147 619.379L74.0105 620.175L77.1938 620.971L84.3561 623.359L85.1519 624.155L86.7435 624.952H87.5393L93.9058 627.34L98.6807 628.932L100.272 629.728L101.864 630.524H102.66L108.23 632.913L151.204 649.631L172.691 657.592L176.67 659.185L177.466 659.981H178.262L192.586 665.553L294.45 704.563Z" fill="#3A214D"/>
<path d="M375.623 728.447L327.079 716.505L336.628 721.282L340.607 722.874L345.382 724.466L346.974 725.262L349.361 726.058L377.215 736.408L375.623 728.447Z" fill="#3A214D"/>
<path d="M435.309 117.825L327.079 106.68L317.529 134.544L315.937 148.874L317.529 149.67L318.325 148.078V142.505L319.916 135.34L321.508 125.786L328.67 112.252L557.068 138.524L556.272 135.34L528.419 130.563L519.665 129.767L505.34 127.379L470.325 122.602L451.225 120.214L435.309 117.825Z" fill="#96C9D4"/>
<path d="M318.325 167.981L315.937 169.573L316.733 179.126L323.1 193.456H346.974L321.508 180.718L319.12 168.777L318.325 167.981Z" fill="#96C9D4"/>
<path d="M110.618 440.252L109.822 443.437L116.189 442.641L110.618 440.252Z" fill="#96C9D4"/>
<path d="M531.602 470.505L514.094 480.058L503.749 487.223V490.408L532.398 472.893L531.602 470.505Z" fill="#96C9D4"/>
<path d="M497.382 491.204L471.12 506.33L469.529 508.718L471.12 511.107L498.178 493.592L497.382 491.204Z" fill="#96C9D4"/>
<path d="M467.937 511.107L462.367 516.68L459.979 521.456L456.796 531.01L455.204 539.767H458.387L459.979 535.786L469.529 513.495L467.937 511.107Z" fill="#96C9D4"/>
<path d="M532.398 561.262L520.461 573.204L522.848 574.796L530.806 567.631L533.99 563.65L532.398 561.262Z" fill="#96C9D4"/>
<path d="M449.634 574V577.184H452.817L453.613 576.388L452.817 574H449.634Z" fill="#96C9D4"/>
<path d="M516.482 577.184L502.157 590.718L504.545 592.311L509.319 589.126L515.686 582.757L518.073 579.573L516.482 577.184Z" fill="#96C9D4"/>
<path d="M494.995 597.883L487.037 605.845L488.628 608.233L495.791 601.864L496.586 600.272L494.995 597.883Z" fill="#96C9D4"/>
<path d="M452.817 608.233L449.634 609.825V612.214L457.592 630.524L460.775 631.32V628.136L456.796 624.951L452.817 608.233Z" fill="#96C9D4"/>
<path d="M479.079 613.01L469.529 622.563L471.916 624.155L480.67 615.398L479.079 613.01Z" fill="#96C9D4"/>
<path fill-rule="evenodd" clip-rule="evenodd" d="M339.811 7.16505L358.593 6.44854L356.524 7.16505H339.811ZM386.366 5.41359L388.356 4.7767L445.654 2.38835L448.042 1.59223L475.895 0.796117L478.283 0L489.424 1.59223L386.366 5.41359ZM385.969 5.57282L369.734 6.05049L358.593 6.44854L358.911 6.36893L369.734 6.05049L386.366 5.41359L385.969 5.57282ZM154.387 16.7184L326.283 7.16505L325.487 8.75728L299.225 9.5534L296.838 10.3495L268.984 11.1456L265.801 11.9417L244.314 12.7379H238.743L236.356 13.534L154.387 17.5146V16.7184ZM69.2356 21.4951L145.633 17.5146V18.3107L73.2147 21.4951H69.2356ZM521.257 31.0485H522.052V31.8447H521.257V31.0485ZM530.806 70.8544L532.398 65.2816L545.927 66.0777H546.722L530.806 71.6505V70.8544ZM528.419 83.5922V79.6117H529.215L528.419 83.5922ZM527.623 85.1845L528.419 84.3884L526.827 117.029L527.623 85.1845ZM528.419 130.563L526.827 120.214H527.623L556.272 135.34L528.419 130.563ZM92.3141 152.854L93.1099 148.874V152.854H92.3141ZM543.539 152.854L544.335 151.262L543.539 154.447V152.854ZM91.5183 180.718L91.7571 173.792L91.5183 183.903V180.718ZM92.3141 153.65V160.019L91.7571 173.792L92.3141 153.65ZM541.948 159.223L542.743 158.427L541.948 169.573H541.152V164.796L541.948 159.223ZM70.0314 192.66L91.5183 183.903L93.1099 192.66H70.0314ZM541.152 187.884V185.495H541.948L543.539 195.845H542.743L541.152 187.884ZM59.6859 228.485L61.2775 209.697L60.4817 246.796L59.6859 228.485ZM61.2775 208.583V209.379V209.697V208.583ZM522.052 218.932L523.644 214.155L521.257 230.078V223.709L522.052 218.932ZM521.257 256.35L522.052 255.553L522.848 268.291L521.257 258.738V256.35ZM60.4817 269.087L67.644 265.107L74.0105 268.291L68.4398 269.087H60.4817ZM526.031 281.029L525.236 284.214L526.827 273.068V273.864L526.031 281.029ZM522.848 293.767L524.44 287.398L522.052 310.485H521.257V303.32L522.848 293.767ZM38.199 307.301L38.9152 296.951L38.199 337.553V307.301ZM38.9948 290.583V295.359L38.9152 296.951L38.9948 290.583ZM520.461 327.204V325.612H521.257V331.184L520.461 327.204ZM525.236 343.922L521.257 331.184L529.215 350.291L525.236 343.922ZM522.848 364.621V363.825L527.623 364.621H522.848ZM534.785 365.417L528.419 364.621L543.539 366.214H540.356L534.785 365.417ZM71.623 366.214L58.89 365.417H71.623V366.214ZM91.5183 382.932L90.7225 376.563L91.5183 381.34V382.932ZM559.455 391.689L558.66 381.34L560.251 391.689H559.455ZM89.9267 408.408L91.5183 390.097L90.7225 408.408H89.9267ZM82.7644 416.369L89.1309 411.592V412.388L87.5393 416.369H82.7644ZM559.455 423.534H560.251L559.455 428.311V423.534ZM103.455 444.233V438.66L110.618 440.252L109.822 443.437L106.639 444.233H103.455ZM555.476 446.621L557.068 441.049L561.843 448.214L555.476 446.621ZM79.5811 449.01L87.5393 447.417L81.9686 449.01H79.5811ZM557.068 454.583L561.843 449.01L557.864 456.175L557.068 454.583ZM544.335 483.243L547.518 473.689L551.497 504.738L544.335 503.942L543.539 492L544.335 483.243ZM59.6859 491.204L61.2775 479.262V481.651L59.6859 491.204ZM54.1152 496.777L59.6859 491.204V495.981L54.1152 496.777ZM44.5654 498.369L47.7487 497.573V498.369H44.5654ZM31.8325 500.757L36.6073 499.961L32.6283 500.757H31.8325ZM21.4869 503.146L24.6702 502.35V503.146H21.4869ZM15.9162 503.942L21.4869 503.146L18.3037 503.942H15.9162ZM0 536.583L0.795811 531.01V531.806L0 536.583ZM0.795811 571.612L0 566.835L0.795811 569.223V571.612ZM588.105 568.427L589.696 567.631V581.961H588.9L588.105 575.592V568.427Z" fill="#F5F6F8" fill-opacity="0.1"/>
<path fill-rule="evenodd" clip-rule="evenodd" d="M325.487 8.75727L326.283 7.16504H342.995L325.487 8.75727ZM54.1152 23.0874L54.911 21.4951H73.2146L54.1152 23.0874ZM547.041 64.4058L548.314 58.1165L547.518 63.6893L547.041 64.4058ZM546.723 66.0777H545.927L547.041 64.4058L546.723 66.0777ZM528.419 78.8155L530.01 70.8544H530.806V71.6505L529.215 79.6116H528.419V78.8155ZM526.827 119.417H527.623V120.214H526.827V119.417ZM541.152 169.573H541.948L541.152 175.146V169.573ZM540.356 175.942L541.152 175.146V179.126L540.356 175.942ZM541.152 185.495V179.922L541.948 185.495H541.152ZM543.539 204.602L542.743 195.845H543.539L545.131 204.602H543.539ZM531.602 210.175L533.194 206.99H535.581L531.602 210.175ZM520.461 231.67L521.257 229.282V230.078L522.052 255.553L521.257 256.349L519.665 242.816V236.447L520.461 231.67ZM523.644 273.068L522.848 268.291L526.827 273.068V273.864H525.236L523.644 273.068ZM41.3822 280.233L42.178 277.845V280.233H41.3822ZM38.9948 290.583L41.3822 280.233L38.9948 292.175V290.583ZM520.461 312.874L521.257 310.485H522.052L521.257 325.612H520.461L519.665 319.243L520.461 312.874ZM518.869 363.825L521.257 361.437L522.848 363.825V364.621L518.869 363.825ZM79.5811 367.01H89.1309L89.9267 371.786L79.5811 367.01ZM555.476 372.582L542.743 366.214H543.539L555.476 372.582ZM559.455 423.534L560.251 406.816H561.047L560.251 423.534H559.455ZM558.66 433.883L559.455 427.515V428.311L558.66 433.883ZM552.293 456.971L557.068 454.582L557.864 456.175L551.497 463.34V458.563L552.293 456.971ZM592.084 550.116V547.728H592.88L592.084 550.116ZM591.288 550.913L592.084 550.116L591.288 553.301V550.913ZM588.105 567.631L589.696 560.466V567.631L588.105 568.427V567.631ZM518.073 662.369L521.257 661.573L490.22 680.68L494.995 674.311L518.073 662.369ZM456.796 698.99L477.487 687.049H479.874L456.796 702.175V698.99ZM433.717 714.116L438.492 710.932H441.675L433.717 715.709V714.116Z" fill="#DACDC1" fill-opacity="0.4"/>
<path fill-rule="evenodd" clip-rule="evenodd" d="M145.633 17.5146L154.387 16.7184V17.5146L145.633 18.3107V17.5146ZM93.1099 148.874L94.7015 135.34L97.089 136.136L93.1099 149.67V148.874ZM552.293 141.709L556.272 135.34L557.068 138.524L552.293 141.709ZM548.314 142.505L552.293 141.709L545.927 146.485L548.314 142.505ZM92.3141 152.854H93.1099L92.3141 155.243V152.854ZM68.4398 193.456L70.0314 192.66H70.8272L70.0314 193.456H68.4398ZM533.194 206.194L543.539 204.602H545.131L535.581 206.99H533.194V206.194ZM71.623 366.214V365.417L74.8063 366.214H71.623ZM66.8481 461.748L70.0314 456.175L69.2356 459.359L66.8481 461.748ZM61.2775 479.262L66.8481 461.748L64.4607 471.301L61.2775 480.058V479.262ZM47.7487 497.573L53.3193 496.777L47.7487 498.369V497.573ZM29.445 501.553L31.8324 500.757H32.6282L29.445 501.553ZM24.6701 502.35L29.445 501.553L24.6701 503.146V502.35ZM4.77483 516.68L15.9162 503.942H18.3036V504.738L4.77483 516.68ZM605.613 528.621L603.225 515.087L608 523.049L605.613 528.621ZM0.795776 531.01L4.77483 516.68V519.068L3.18321 524.641L0.795776 531.806V531.01ZM594.471 586.738V585.942L594.79 586.897L594.471 586.738ZM601.634 607.437L521.257 658.388H518.073V654.408L599.087 599.715L601.634 607.437ZM599.007 599.635L594.79 586.897L601.634 590.718L604.021 596.291L599.007 599.635ZM43.69 608.153L36.5277 605.765L42.0984 606.561L43.69 608.153ZM73.1351 619.299L43.69 608.153L52.444 610.542L73.1351 619.299ZM478.203 679.804L486.957 674.231H494.915L490.14 680.6L479.795 686.969H477.407L478.203 679.804ZM438.413 710.852L447.962 703.687L448.758 706.076L441.596 710.852H438.413ZM422.496 716.425L433.638 714.037V715.629L381.114 737.92L422.496 716.425ZM336.549 721.202L319.837 714.833L326.999 716.425L336.549 721.202Z" fill="#9DA2A6" fill-opacity="0.4"/>
<path d="M551.497 458.563L543.539 462.544L531.602 470.505L532.398 472.893L551.497 462.544V458.563Z" fill="#BEBCBB"/>
<path d="M503.749 487.223L497.382 491.204L498.178 493.592L503.749 490.408V487.223Z" fill="#BEBCBB"/>
<path d="M469.529 508.718L467.937 511.107L469.529 513.495L471.12 511.107L469.529 508.718Z" fill="#BEBCBB"/>
<path d="M553.885 538.971L532.398 561.262L533.99 563.65L548.314 550.913L553.885 538.971Z" fill="#BEBCBB"/>
<path d="M455.204 539.767L454.408 542.155L452.021 554.893L450.429 566.039L449.634 574H452.817L454.408 564.447L457.592 546.136L458.387 539.767H455.204Z" fill="#BEBCBB"/>
<path d="M520.461 573.204L516.482 577.184L518.073 579.573L522.848 574.796L520.461 573.204Z" fill="#BEBCBB"/>
<path d="M449.634 577.184L448.838 602.66L449.634 605.845L452.817 588.33V577.184H449.634Z" fill="#BEBCBB"/>
<path d="M590.492 585.942L591.288 589.126L601.634 590.718L594.471 586.738L590.492 585.942Z" fill="#BEBCBB"/>
<path d="M502.157 590.718L494.995 597.883L496.586 600.272L504.545 592.311L502.157 590.718Z" fill="#BEBCBB"/>
<path d="M487.037 605.845L479.079 613.01L480.67 615.398L488.628 608.233L487.037 605.845Z" fill="#BEBCBB"/>
<path d="M469.529 622.563L460.775 628.136V631.32L471.916 624.155L469.529 622.563Z" fill="#BEBCBB"/>
<path d="M518.073 654.408L487.037 674.311H494.995L518.073 662.369V658.388V654.408Z" fill="#BEBCBB"/>
<path d="M478.283 679.883L422.576 716.505L433.717 714.117L438.492 710.932L448.042 703.767L456.796 698.99L477.487 687.049L478.283 679.883Z" fill="#BEBCBB"/>
<path d="M62.8691 202.214L61.2775 208.583V209.379H62.0733L62.8691 202.214Z" fill="#BAB2AA" fill-opacity="0.4"/>
<path d="M38.199 336.757V337.553L38.9948 341.534L38.199 336.757Z" fill="#BAB2AA" fill-opacity="0.4"/>
<path d="M559.456 391.689L560.251 406.816H561.047L560.251 391.689H559.456Z" fill="#BAB2AA" fill-opacity="0.4"/>
<path d="M89.9267 408.408L89.1309 411.592V412.388L90.7225 410V408.408H89.9267Z" fill="#BAB2AA" fill-opacity="0.4"/>
<path d="M79.5812 417.165L73.2147 425.922L74.0105 422.738L79.5812 417.165Z" fill="#BAB2AA" fill-opacity="0.4"/>
<path d="M588.901 581.961L590.492 585.942L594.471 586.738V585.942L589.696 581.961H588.901Z" fill="#BAB2AA" fill-opacity="0.4"/>
<path d="M518.073 658.388V662.369L521.257 661.573V658.388H518.073Z" fill="#BAB2AA" fill-opacity="0.4"/>
<path d="M456.796 698.99L448.042 703.767L448.838 706.155L456.796 702.175V698.99Z" fill="#BAB2AA" fill-opacity="0.4"/>
<path d="M543.539 371.786L546.723 380.544L549.11 394.078V405.223V413.184L547.518 422.738L542.304 436.647L541.948 455.379L351.749 499.961L74.0105 422.738L79.5812 417.165L82.7644 416.369H87.5393L140.063 436.272L346.178 492.796L515.686 454.583L526.827 451.398L537.969 448.214L542.304 436.647L543.539 371.786Z" fill="#AA3711"/>
<path d="M31.2147 43.2784L28.6492 90.7573V83.5922L27.8534 62.8932L31.2147 43.2784L31.8325 31.8447L54.911 21.4951L54.1152 23.0874L32.6283 35.0291L31.2147 43.2784Z" fill="#F5F6F8" fill-opacity="0.1"/>
<path d="M558.66 379.748H557.864V380.544H558.66V379.748Z" fill="#F5F6F8" fill-opacity="0.1"/>
<path d="M74.0105 128.175H73.2147V128.971H74.0105V128.175Z" fill="#9DA2A6" fill-opacity="0.4"/>
<path d="M76.398 128.971H75.6022V129.767H76.398V128.971Z" fill="#9DA2A6" fill-opacity="0.4"/>
<path d="M85.1519 623.359H84.3561V624.155H85.1519V623.359Z" fill="#9DA2A6" fill-opacity="0.4"/>
<path d="M87.5393 624.155H86.7435V624.952H87.5393V624.155Z" fill="#9DA2A6" fill-opacity="0.4"/>
<path d="M178.262 659.185H177.466V659.981H178.262V659.185Z" fill="#9DA2A6" fill-opacity="0.4"/>
<path d="M319.916 714.117H319.12V714.913H319.916V714.117Z" fill="#9DA2A6" fill-opacity="0.4"/>
<path d="M478.283 0L475.895 0.796117H478.283V0Z" fill="#BAB2AA" fill-opacity="0.4"/>
</svg>
