<svg width="48" height="48" viewBox="0 0 48 48" fill="none" xmlns="http://www.w3.org/2000/svg">
<path fill-rule="evenodd" clip-rule="evenodd" d="M1.28673 0.302307C1.34482 0.302307 1.50943 0.360094 1.66436 0.437143C1.8096 0.504561 1.97421 0.649028 2.02262 0.74534C2.09041 0.870545 2.11945 8.57546 2.11945 45.7132L5.84736 45.7613L5.89578 32.2873L6.34119 31.8443H14.0681L14.5135 32.2873L14.562 45.7613H19.8875V35.2441C19.8875 25.3144 19.8972 24.7076 20.0522 24.515C20.2168 24.332 20.3717 24.3128 22.5019 24.2453C23.751 24.2068 25.5036 24.1876 26.3944 24.2068C27.9631 24.2357 28.0115 24.2453 28.515 24.7173L28.5053 45.7613H33.8309V10.9929L34.3054 10.5113L42.0129 10.5017L42.4487 10.9447L42.4971 45.7132L44.9662 45.7613C46.3218 45.7902 47.445 45.8287 47.4644 45.8384C47.4741 45.848 47.5516 46.0021 47.6387 46.1755C47.7646 46.4355 47.7743 46.5222 47.6581 46.763C47.5903 46.9171 47.416 47.1001 47.2707 47.1675C47.048 47.283 43.2427 47.3023 1.19958 47.3023L0.618607 46.7244L0.637972 0.860914L0.909093 0.58161C1.06402 0.427512 1.22863 0.302307 1.28673 0.302307V0.302307ZM24.2352 7.52567H29.7641L30.3451 8.10354V10.7521C30.3451 12.6783 30.316 13.4681 30.2289 13.6414C30.1611 13.7763 29.9965 13.9304 29.8609 13.9882C29.7254 14.046 29.5027 14.0652 29.3574 14.0363C29.1831 13.9978 29.0282 13.8726 28.941 13.6896C28.8249 13.4681 28.7958 13.0251 28.7958 10.0779L18.9967 19.8246C10.3886 28.3867 9.14923 29.581 8.89747 29.581C8.72318 29.581 8.51984 29.5039 8.38428 29.3691C8.22935 29.215 8.17126 29.0609 8.19062 28.8394C8.21967 28.5794 9.55591 27.2021 27.6242 9.06665H26.0265C24.8839 9.06665 24.361 9.02813 24.1771 8.93181C24.0221 8.8644 23.8769 8.72956 23.8382 8.64288C23.7898 8.5562 23.7607 8.38284 23.7607 8.248C23.7704 8.11317 23.8769 7.89165 24.0028 7.76645L24.2352 7.52567Z" fill="#505050"/>
<path d="M4.2981 18.7074C4.85971 18.5919 5.70212 18.4667 6.18627 18.4185C6.67041 18.3607 7.77426 18.3414 8.6554 18.3607C9.53655 18.38 10.7082 18.4667 11.2698 18.5533C11.8314 18.64 12.7028 18.8134 13.2064 18.9386C13.7099 19.0734 14.4942 19.2949 14.9493 19.449C15.4044 19.6031 15.9563 19.8054 16.1887 19.8921C16.4114 19.9787 16.5954 20.0751 16.5954 20.1232C16.5954 20.1617 14.6975 22.0783 12.3833 24.3802C8.68445 28.0593 8.17126 28.6082 8.17126 28.8587C8.17126 29.0224 8.26809 29.2439 8.39396 29.3691C8.51984 29.5039 8.72318 29.581 8.89748 29.581C9.14923 29.581 9.76893 29.0031 13.6034 25.1988C16.0241 22.791 18.0381 20.8167 18.0769 20.8167C18.1156 20.8167 18.5513 21.0574 19.0451 21.356C19.5293 21.6546 20.2845 22.165 20.7106 22.4828C21.1366 22.8007 21.7563 23.3111 22.0952 23.6001C22.5116 23.9757 22.6569 24.1587 22.5794 24.2068C22.5116 24.2453 21.9597 24.2839 21.369 24.2839C20.362 24.2839 20.2555 24.3031 20.0812 24.4957C19.8876 24.7173 19.8876 24.8136 19.8876 45.7613H14.562L14.5135 32.2873L14.0681 31.8443H6.34119L5.89578 32.2873L5.84737 45.7613L2.11946 45.7132L2.09041 32.663C2.08072 25.4878 2.09041 19.5261 2.10977 19.4201C2.13882 19.2853 2.31311 19.1794 2.71979 19.0638C3.02965 18.9771 3.7365 18.8134 4.2981 18.7074Z" fill="#FEBECC"/>
<path d="M0.308756 33.1542C0.28939 21.6257 0.308756 19.8632 0.434633 19.8246C0.502414 19.7957 0.579877 19.7669 0.599242 19.7669C0.608925 19.7572 0.618608 25.7574 0.618608 33.0964C0.618608 44.8849 0.599242 46.4355 0.473365 46.4355C0.347487 46.4355 0.328122 44.8849 0.308756 33.1542Z" fill="#FEBECC"/>
<path d="M28.5247 43.5943L28.515 39.0677C28.5053 36.5732 28.515 34.5603 28.5441 34.5892C28.5634 34.6181 28.6602 35.0515 28.7474 35.5523C28.8345 36.0531 28.9507 37.0548 28.9991 37.7675C29.0572 38.6439 29.0572 39.5203 28.9895 40.4642C28.9314 41.2347 28.8055 42.2556 28.5247 43.5943Z" fill="#FEBECC"/>
<path d="M21.34 45.7613V35.7449V25.7285H27.0529L27.0045 45.7132L21.34 45.7613Z" fill="#FF9D9C"/>
<path d="M7.39664 45.7613V39.5492V33.3371H13.0127V45.7613H7.39664Z" fill="#FDE4A1"/>
<path d="M35.264 28.9261C35.2543 19.6609 35.2833 12.0523 35.3318 12.0234C35.3802 11.9849 36.668 11.956 40.9962 11.956V45.7613H35.2833L35.264 28.9261Z" fill="#E9F4BC"/>
</svg>
