<svg width="301" height="66" viewBox="0 0 301 66" fill="none" xmlns="http://www.w3.org/2000/svg">
<rect width="301" height="66" rx="8" fill="white"/>
<path d="M49.246 28.9827H43.2124C42.9804 27.6935 42.5485 26.559 41.9167 25.5792C41.285 24.5993 40.5115 23.7678 39.5961 23.0845C38.6808 22.4012 37.6558 21.8855 36.5213 21.5374C35.3996 21.1893 34.2071 21.0153 32.9437 21.0153C30.6617 21.0153 28.6183 21.589 26.8133 22.7364C25.0213 23.8838 23.6031 25.5663 22.5588 27.7837C21.5275 30.0012 21.0118 32.7086 21.0118 35.9059C21.0118 39.129 21.5275 41.8493 22.5588 44.0668C23.6031 46.2843 25.0277 47.9603 26.8327 49.0948C28.6376 50.2294 30.6681 50.7966 32.9243 50.7966C34.1749 50.7966 35.361 50.629 36.4826 50.2938C37.6171 49.9457 38.6421 49.4365 39.5574 48.7661C40.4728 48.0957 41.2463 47.277 41.8781 46.3101C42.5227 45.3303 42.9675 44.2086 43.2124 42.9452L49.246 42.9645C48.9237 44.9113 48.2985 46.7033 47.3702 48.3406C46.4549 49.9651 45.2752 51.3703 43.8313 52.5564C42.4002 53.7296 40.7629 54.6386 38.9193 55.2832C37.0757 55.9278 35.0644 56.2501 32.8856 56.2501C29.4563 56.2501 26.4008 55.4379 23.7192 53.8134C21.0375 52.1761 18.9232 49.8361 17.3761 46.7935C15.8419 43.7509 15.0748 40.1217 15.0748 35.9059C15.0748 31.6772 15.8484 28.048 17.3955 25.0183C18.9425 21.9757 21.0569 19.6422 23.7385 18.0178C26.4201 16.3805 29.4692 15.5618 32.8856 15.5618C34.9871 15.5618 36.9467 15.8648 38.7646 16.4707C40.5953 17.0637 42.239 17.9404 43.6959 19.1007C45.1527 20.2482 46.3582 21.6534 47.3122 23.3165C48.2662 24.9668 48.9108 26.8555 49.246 28.9827ZM59.4761 55.7086H53.1331L67.3856 16.1033H74.2895L88.542 55.7086H82.1989L71.0019 23.2972H70.6925L59.4761 55.7086ZM60.5398 40.1991H81.116V45.2271H60.5398V40.1991ZM94.2614 16.1033H101.513L114.122 46.8902H114.586L127.195 16.1033H134.447V55.7086H128.761V27.0489H128.394L116.713 55.6506H111.995L100.314 27.0295H99.9469V55.7086H94.2614V16.1033ZM177.538 35.9059C177.538 40.1346 176.764 43.7703 175.217 46.8129C173.67 49.8426 171.549 52.1761 168.855 53.8134C166.173 55.4379 163.124 56.2501 159.708 56.2501C156.278 56.2501 153.217 55.4379 150.522 53.8134C147.84 52.1761 145.726 49.8361 144.179 46.7935C142.632 43.7509 141.858 40.1217 141.858 35.9059C141.858 31.6772 142.632 28.048 144.179 25.0183C145.726 21.9757 147.84 19.6422 150.522 18.0178C153.217 16.3805 156.278 15.5618 159.708 15.5618C163.124 15.5618 166.173 16.3805 168.855 18.0178C171.549 19.6422 173.67 21.9757 175.217 25.0183C176.764 28.048 177.538 31.6772 177.538 35.9059ZM171.62 35.9059C171.62 32.6828 171.098 29.969 170.054 27.7644C169.023 25.5469 167.604 23.8709 165.799 22.7364C164.007 21.589 161.977 21.0153 159.708 21.0153C157.426 21.0153 155.389 21.589 153.597 22.7364C151.805 23.8709 150.387 25.5469 149.342 27.7644C148.311 29.969 147.795 32.6828 147.795 35.9059C147.795 39.129 148.311 41.8493 149.342 44.0668C150.387 46.2714 151.805 47.9474 153.597 49.0948C155.389 50.2294 157.426 50.7966 159.708 50.7966C161.977 50.7966 164.007 50.2294 165.799 49.0948C167.604 47.9474 169.023 46.2714 170.054 44.0668C171.098 41.8493 171.62 39.129 171.62 35.9059ZM181.991 55.7086V50.5259L183.151 50.4872C184.724 50.4485 185.962 49.9135 186.864 48.8821C187.779 47.8507 188.443 46.1876 188.856 43.8928C189.281 41.5979 189.565 38.536 189.707 34.707L190.384 16.1033H215.427V55.7086H209.529V21.17H196.011L195.392 36.2927C195.225 40.5343 194.799 44.099 194.116 46.9869C193.433 49.8619 192.272 52.0343 190.635 53.504C189.011 54.9738 186.696 55.7086 183.692 55.7086H181.991ZM224.129 55.7086V16.1033H248.96V21.2473H230.105V33.3146H247.664V38.4393H230.105V50.5646H249.192V55.7086H224.129ZM254.989 21.2473V16.1033H285.64V21.2473H273.283V55.7086H267.327V21.2473H254.989Z" fill="black"/>
</svg>
