<svg width="301" height="66" viewBox="0 0 301 66" fill="none" xmlns="http://www.w3.org/2000/svg">
<rect width="301" height="66" rx="8" fill="white"/>
<path d="M62.246 26.2741H56.2124C55.9804 24.9849 55.5485 23.8504 54.9167 22.8705C54.285 21.8907 53.5115 21.0592 52.5961 20.3759C51.6808 19.6926 50.6558 19.1769 49.5213 18.8288C48.3996 18.4807 47.2071 18.3066 45.9437 18.3066C43.6617 18.3066 41.6183 18.8803 39.8133 20.0278C38.0213 21.1752 36.6031 22.8576 35.5588 25.0751C34.5275 27.2926 34.0118 30 34.0118 33.1973C34.0118 36.4204 34.5275 39.1407 35.5588 41.3582C36.6031 43.5757 38.0277 45.2517 39.8327 46.3862C41.6376 47.5207 43.6681 48.088 45.9243 48.088C47.1749 48.088 48.361 47.9204 49.4826 47.5852C50.6171 47.2371 51.6421 46.7279 52.5574 46.0575C53.4728 45.3871 54.2463 44.5684 54.8781 43.6015C55.5227 42.6216 55.9675 41.5 56.2124 40.2366L62.246 40.2559C61.9237 42.2026 61.2985 43.9947 60.3702 45.632C59.4549 47.2565 58.2752 48.6617 56.8313 49.8478C55.4002 51.021 53.7629 51.9299 51.9193 52.5746C50.0757 53.2192 48.0644 53.5415 45.8856 53.5415C42.4563 53.5415 39.4008 52.7293 36.7192 51.1048C34.0375 49.4675 31.9232 47.1275 30.3761 44.0849C28.8419 41.0423 28.0748 37.4131 28.0748 33.1973C28.0748 28.9686 28.8484 25.3394 30.3955 22.3097C31.9425 19.2671 34.0569 16.9336 36.7385 15.3092C39.4201 13.6718 42.4692 12.8532 45.8856 12.8532C47.9871 12.8532 49.9467 13.1561 51.7646 13.7621C53.5953 14.3551 55.239 15.2318 56.6959 16.3921C58.1527 17.5395 59.3582 18.9448 60.3122 20.6079C61.2662 22.2581 61.9108 24.1469 62.246 26.2741ZM72.4761 53H66.1331L80.3856 13.3946H87.2895L101.542 53H95.1989L84.0019 20.5886H83.6925L72.4761 53ZM73.5398 37.4905H94.116V42.5185H73.5398V37.4905ZM107.261 13.3946H114.513L127.122 44.1816H127.586L140.195 13.3946H147.447V53H141.761V24.3403H141.394L129.713 52.942H124.995L113.314 24.3209H112.947V53H107.261V13.3946ZM190.538 33.1973C190.538 37.426 189.764 41.0617 188.217 44.1043C186.67 47.134 184.549 49.4675 181.855 51.1048C179.173 52.7293 176.124 53.5415 172.708 53.5415C169.278 53.5415 166.217 52.7293 163.522 51.1048C160.84 49.4675 158.726 47.1275 157.179 44.0849C155.632 41.0423 154.858 37.4131 154.858 33.1973C154.858 28.9686 155.632 25.3394 157.179 22.3097C158.726 19.2671 160.84 16.9336 163.522 15.3092C166.217 13.6718 169.278 12.8532 172.708 12.8532C176.124 12.8532 179.173 13.6718 181.855 15.3092C184.549 16.9336 186.67 19.2671 188.217 22.3097C189.764 25.3394 190.538 28.9686 190.538 33.1973ZM184.62 33.1973C184.62 29.9742 184.098 27.2604 183.054 25.0558C182.023 22.8383 180.604 21.1623 178.799 20.0278C177.007 18.8803 174.977 18.3066 172.708 18.3066C170.426 18.3066 168.389 18.8803 166.597 20.0278C164.805 21.1623 163.387 22.8383 162.342 25.0558C161.311 27.2604 160.795 29.9742 160.795 33.1973C160.795 36.4204 161.311 39.1407 162.342 41.3582C163.387 43.5628 164.805 45.2388 166.597 46.3862C168.389 47.5207 170.426 48.088 172.708 48.088C174.977 48.088 177.007 47.5207 178.799 46.3862C180.604 45.2388 182.023 43.5628 183.054 41.3582C184.098 39.1407 184.62 36.4204 184.62 33.1973Z" fill="black"/>
<path d="M228.167 8.92786C228.051 8.92741 227.937 8.9499 227.829 8.99403C227.722 9.03816 227.625 9.10307 227.543 9.185C227.461 9.26693 227.396 9.36426 227.352 9.4714C227.308 9.57853 227.285 9.69332 227.286 9.80918V15.0777C227.286 15.193 227.309 15.3071 227.354 15.4135C227.398 15.5199 227.463 15.6165 227.545 15.6977C227.627 15.7789 227.724 15.8433 227.831 15.887C227.938 15.9307 228.052 15.953 228.167 15.9525C228.399 15.9517 228.621 15.8593 228.785 15.6954C228.949 15.5315 229.041 15.3094 229.042 15.0777V9.80918C229.042 9.69386 229.02 9.57958 228.976 9.47287C228.933 9.36615 228.868 9.26912 228.787 9.18728C228.706 9.10543 228.609 9.04042 228.503 8.99591C228.397 8.95139 228.283 8.92826 228.167 8.92786Z" fill="#ED7425"/>
<path d="M241.387 12.5244C241.228 12.5185 241.071 12.5558 240.932 12.6322C240.792 12.7087 240.677 12.8215 240.596 12.9586L237.965 17.5208C237.849 17.7219 237.817 17.9611 237.876 18.1858C237.936 18.4106 238.082 18.6026 238.283 18.7196C238.484 18.8362 238.723 18.8683 238.948 18.8088C239.173 18.7492 239.365 18.603 239.482 18.4021L242.119 13.8399C242.177 13.74 242.214 13.6296 242.229 13.5153C242.244 13.4009 242.236 13.2847 242.206 13.1734C242.176 13.0621 242.124 12.9577 242.053 12.8664C241.983 12.775 241.895 12.6985 241.795 12.6411C241.671 12.5695 241.531 12.5293 241.387 12.5244Z" fill="#ED7425"/>
<path d="M214.857 12.4208C214.734 12.4325 214.614 12.47 214.507 12.531C214.407 12.5884 214.319 12.6649 214.249 12.7563C214.178 12.8476 214.126 12.9519 214.096 13.0633C214.066 13.1746 214.058 13.2908 214.073 13.4051C214.088 13.5195 214.125 13.6298 214.183 13.7298L216.82 18.2919C216.878 18.3919 216.954 18.4796 217.046 18.55C217.137 18.6204 217.241 18.6722 217.353 18.7023C217.464 18.7324 217.58 18.7402 217.694 18.7253C217.809 18.7105 217.919 18.6733 218.019 18.6158C218.22 18.4988 218.366 18.3068 218.426 18.082C218.485 17.8573 218.453 17.6181 218.337 17.417L215.706 12.8548C215.621 12.7084 215.496 12.5895 215.345 12.5124C215.195 12.4354 215.025 12.4037 214.857 12.4208Z" fill="#ED7425"/>
<path d="M205.266 22.044C205.108 22.0399 204.951 22.0787 204.813 22.1563C204.675 22.2339 204.561 22.3473 204.482 22.4847C204.365 22.6858 204.333 22.925 204.393 23.1498C204.452 23.3745 204.598 23.5665 204.799 23.6835L209.361 26.3145C209.563 26.4312 209.802 26.4633 210.026 26.4037C210.251 26.3442 210.443 26.1979 210.56 25.997C210.618 25.897 210.655 25.7867 210.67 25.6723C210.685 25.558 210.677 25.4418 210.647 25.3304C210.617 25.2191 210.565 25.1148 210.494 25.0235C210.424 24.9322 210.336 24.8556 210.236 24.7982L205.681 22.1607C205.554 22.0879 205.412 22.0479 205.266 22.044Z" fill="#ED7425"/>
<path d="M245.586 17.9096C245.362 17.9165 245.148 18.0092 244.99 18.1687L243.13 20.0285C243.048 20.1101 242.983 20.207 242.939 20.3138C242.895 20.4205 242.872 20.535 242.872 20.6506C242.872 20.7662 242.895 20.8807 242.939 20.9875C242.983 21.0942 243.048 21.1912 243.13 21.2727C243.295 21.4362 243.517 21.528 243.749 21.528C243.981 21.528 244.203 21.4362 244.368 21.2727L246.234 19.4129C246.316 19.3313 246.381 19.2344 246.426 19.1276C246.47 19.0208 246.493 18.9064 246.493 18.7908C246.493 18.6752 246.47 18.5607 246.426 18.454C246.381 18.3472 246.316 18.2502 246.234 18.1687C246.15 18.0835 246.049 18.0165 245.937 17.9719C245.826 17.9274 245.706 17.9062 245.586 17.9096Z" fill="#ED7425"/>
<path d="M234.466 11.5264C234.283 11.5383 234.108 11.6072 233.967 11.7235C233.825 11.8397 233.723 11.9974 233.675 12.1744L232.995 14.7147C232.965 14.8262 232.958 14.9425 232.973 15.0569C232.988 15.1713 233.025 15.2817 233.083 15.3816C233.141 15.4815 233.218 15.5691 233.309 15.6392C233.401 15.7094 233.506 15.7608 233.617 15.7904C233.729 15.8203 233.845 15.828 233.959 15.8129C234.074 15.7978 234.184 15.7602 234.284 15.7025C234.384 15.6447 234.471 15.5678 234.542 15.4761C234.612 15.3844 234.663 15.2799 234.693 15.1683L235.373 12.6281C235.403 12.5166 235.411 12.4003 235.396 12.2859C235.381 12.1714 235.343 12.0611 235.285 11.9612C235.228 11.8613 235.151 11.7737 235.059 11.7036C234.967 11.6334 234.863 11.582 234.751 11.5523C234.658 11.5279 234.562 11.5196 234.466 11.5264Z" fill="#ED7425"/>
<path d="M221.778 11.5264C221.701 11.5275 221.625 11.5387 221.551 11.5596C221.327 11.6196 221.136 11.7657 221.019 11.966C220.903 12.1663 220.87 12.4046 220.929 12.6288L221.609 15.1756C221.639 15.2871 221.69 15.3917 221.76 15.4834C221.831 15.575 221.918 15.6519 222.018 15.7097C222.118 15.7675 222.228 15.805 222.343 15.8201C222.457 15.8352 222.573 15.8276 222.685 15.7977C222.796 15.768 222.901 15.7166 222.993 15.6465C223.084 15.5763 223.161 15.4888 223.219 15.3888C223.277 15.2889 223.314 15.1786 223.329 15.0642C223.344 14.9497 223.337 14.8335 223.307 14.722L222.627 12.1752C222.576 11.9889 222.465 11.8244 222.312 11.7073C222.159 11.5901 221.971 11.5261 221.778 11.5264Z" fill="#ED7425"/>
<path d="M210.69 17.9096C210.465 17.9165 210.252 18.0092 210.094 18.1687C210.012 18.2502 209.947 18.3472 209.902 18.454C209.858 18.5607 209.835 18.6752 209.835 18.7908C209.835 18.9064 209.858 19.0208 209.902 19.1276C209.947 19.2344 210.012 19.3313 210.094 19.4129L211.96 21.2727C212.124 21.4362 212.347 21.528 212.579 21.528C212.811 21.528 213.033 21.4362 213.198 21.2727C213.28 21.1912 213.345 21.0942 213.389 20.9875C213.433 20.8807 213.456 20.7662 213.456 20.6506C213.456 20.535 213.433 20.4205 213.389 20.3138C213.345 20.207 213.28 20.1101 213.198 20.0285L211.338 18.1687C211.253 18.0835 211.152 18.0165 211.041 17.9719C210.929 17.9274 210.81 17.9062 210.69 17.9096Z" fill="#ED7425"/>
<path d="M228.135 17.7087C219.933 17.7253 213.275 24.3949 213.275 32.5032C213.275 40.6115 219.933 47.2735 228.135 47.2912C233.457 47.3012 238.144 44.5184 240.784 40.3249C240.857 40.2093 240.901 40.0784 240.914 39.9426L242.119 27.6365C242.134 27.5004 242.116 27.3628 242.067 27.2347C239.913 21.655 234.477 17.6949 228.135 17.7087Z" fill="#FEBE40"/>
<path d="M228.167 49.0474C228.051 49.047 227.937 49.0694 227.829 49.1136C227.722 49.1577 227.625 49.2226 227.543 49.3045C227.461 49.3864 227.396 49.4838 227.352 49.591C227.308 49.6981 227.285 49.8129 227.286 49.9288V55.1908C227.285 55.3066 227.308 55.4214 227.352 55.5285C227.396 55.6357 227.461 55.7331 227.543 55.815C227.625 55.8969 227.722 55.9618 227.829 56.006C227.937 56.0501 228.051 56.0725 228.167 56.0721C228.283 56.0717 228.397 56.0485 228.503 56.004C228.609 55.9595 228.706 55.8945 228.787 55.8127C228.868 55.7308 228.933 55.6337 228.976 55.527C229.02 55.4203 229.042 55.3061 229.042 55.1908V49.9288C229.042 49.8134 229.02 49.6992 228.976 49.5925C228.933 49.4858 228.868 49.3887 228.787 49.3068C228.706 49.225 228.609 49.16 228.503 49.1155C228.397 49.071 228.283 49.0478 228.167 49.0474Z" fill="#ED7425"/>
<path d="M238.782 46.1637C238.608 46.152 238.434 46.1926 238.283 46.2801C238.082 46.3972 237.936 46.5892 237.876 46.814C237.817 47.0387 237.849 47.2779 237.965 47.479L240.596 52.0411C240.654 52.1412 240.73 52.2289 240.822 52.2993C240.913 52.3698 241.017 52.4215 241.129 52.4516C241.24 52.4817 241.356 52.4896 241.471 52.4748C241.585 52.46 241.695 52.4228 241.795 52.3654C241.895 52.3079 241.983 52.2314 242.053 52.1401C242.124 52.0487 242.176 51.9444 242.206 51.8331C242.236 51.7217 242.244 51.6055 242.229 51.4911C242.214 51.3767 242.177 51.2665 242.119 51.1665L239.482 46.6044C239.41 46.4791 239.309 46.3733 239.187 46.2965C239.065 46.2196 238.926 46.174 238.782 46.1637Z" fill="#ED7425"/>
<path d="M217.604 46.2674C217.446 46.2633 217.29 46.3021 217.152 46.3797C217.013 46.4572 216.899 46.5707 216.82 46.708L214.183 51.2702C214.125 51.3702 214.088 51.4805 214.073 51.5949C214.058 51.7093 214.066 51.8254 214.096 51.9367C214.126 52.0481 214.178 52.1524 214.249 52.2437C214.319 52.3351 214.407 52.4116 214.507 52.469C214.607 52.5265 214.717 52.5637 214.831 52.5785C214.946 52.5933 215.062 52.5855 215.173 52.5554C215.285 52.5253 215.389 52.4735 215.48 52.4031C215.572 52.3327 215.648 52.2449 215.706 52.1449L218.337 47.5828C218.453 47.3816 218.485 47.1424 218.426 46.9176C218.366 46.6929 218.22 46.501 218.019 46.3839C217.893 46.3113 217.75 46.2712 217.604 46.2674Z" fill="#ED7425"/>
<path d="M209.718 38.5688C209.592 38.5815 209.47 38.6212 209.361 38.6852L204.799 41.3162C204.598 41.4332 204.452 41.6253 204.393 41.85C204.333 42.0748 204.365 42.3139 204.482 42.5151C204.539 42.6151 204.616 42.7029 204.707 42.7733C204.798 42.8437 204.903 42.8954 205.014 42.9254C205.125 42.9555 205.242 42.9633 205.356 42.9484C205.47 42.9336 205.581 42.8965 205.681 42.839L210.236 40.208C210.336 40.1506 210.424 40.074 210.494 39.9827C210.565 39.8913 210.617 39.787 210.647 39.6757C210.677 39.5643 210.685 39.4481 210.67 39.3337C210.655 39.2194 210.618 39.1091 210.56 39.0091C210.477 38.8625 210.353 38.743 210.204 38.6649C210.054 38.5867 209.886 38.5536 209.718 38.5688Z" fill="#ED7425"/>
<path d="M243.72 43.4744C243.498 43.4812 243.288 43.5716 243.13 43.7272C243.048 43.8088 242.983 43.9057 242.939 44.0125C242.895 44.1192 242.872 44.2337 242.872 44.3493C242.872 44.4649 242.895 44.5795 242.939 44.6862C242.983 44.793 243.048 44.8899 243.13 44.9714L244.99 46.8313C245.072 46.9132 245.169 46.9782 245.275 47.0226C245.382 47.0669 245.497 47.0898 245.612 47.0898C245.728 47.0898 245.842 47.0669 245.949 47.0226C246.056 46.9782 246.153 46.9132 246.234 46.8313C246.398 46.6668 246.49 46.4443 246.49 46.2124C246.49 45.9805 246.398 45.758 246.234 45.5936L244.368 43.7272C244.283 43.6432 244.181 43.5773 244.07 43.5338C243.959 43.4904 243.839 43.4702 243.72 43.4744Z" fill="#ED7425"/>
<path d="M233.844 49.177C233.767 49.1781 233.691 49.1893 233.617 49.2102C233.506 49.2399 233.401 49.2912 233.309 49.3614C233.218 49.4315 233.141 49.5191 233.083 49.619C233.025 49.7189 232.988 49.8293 232.973 49.9437C232.958 50.0581 232.965 50.1744 232.995 50.2858L233.675 52.8262C233.705 52.9378 233.757 53.0423 233.827 53.1339C233.897 53.2256 233.984 53.3026 234.084 53.3603C234.184 53.4181 234.295 53.4556 234.409 53.4707C234.523 53.4858 234.64 53.4782 234.751 53.4483C234.863 53.4186 234.967 53.3672 235.059 53.2971C235.151 53.2269 235.228 53.1394 235.285 53.0395C235.343 52.9395 235.381 52.8292 235.396 52.7147C235.411 52.6003 235.403 52.484 235.373 52.3725L234.693 49.8323C234.644 49.6448 234.533 49.4788 234.38 49.3604C234.226 49.242 234.038 49.177 233.844 49.177Z" fill="#ED7425"/>
<path d="M222.406 49.177C222.222 49.1877 222.046 49.2559 221.903 49.3722C221.76 49.4886 221.657 49.647 221.609 49.8251L220.929 52.3718C220.899 52.4833 220.891 52.5996 220.906 52.7141C220.921 52.8285 220.959 52.9388 221.017 53.0387C221.074 53.1386 221.151 53.2261 221.243 53.2963C221.335 53.3664 221.439 53.4179 221.551 53.4475C221.662 53.4774 221.779 53.485 221.893 53.4699C222.007 53.4548 222.118 53.4173 222.218 53.3596C222.318 53.3018 222.405 53.2249 222.475 53.1333C222.545 53.0416 222.597 52.937 222.627 52.8254L223.307 50.2787C223.337 50.1672 223.344 50.0509 223.329 49.9364C223.314 49.822 223.277 49.7117 223.219 49.6118C223.161 49.5119 223.084 49.4244 222.993 49.3542C222.901 49.2841 222.796 49.2326 222.685 49.203C222.594 49.1793 222.5 49.1709 222.406 49.177Z" fill="#ED7425"/>
<path d="M212.55 43.4744C212.328 43.4812 212.118 43.5716 211.96 43.7272L210.094 45.5936C209.93 45.758 209.838 45.9805 209.838 46.2124C209.838 46.4443 209.93 46.6668 210.094 46.8313C210.175 46.9132 210.272 46.9782 210.379 47.0226C210.486 47.0669 210.6 47.0898 210.716 47.0898C210.831 47.0898 210.946 47.0669 211.053 47.0226C211.159 46.9782 211.256 46.9132 211.338 46.8313L213.198 44.9714C213.28 44.8899 213.345 44.793 213.389 44.6862C213.433 44.5795 213.456 44.4649 213.456 44.3493C213.456 44.2337 213.433 44.1192 213.389 44.0125C213.345 43.9057 213.28 43.8088 213.198 43.7272C213.113 43.6432 213.011 43.5773 212.9 43.5338C212.788 43.4904 212.669 43.4702 212.55 43.4744Z" fill="#ED7425"/>
<path d="M235.481 24.3077C231.794 24.3077 228.763 27.34 228.763 31.0271C228.763 31.2421 228.849 31.4178 228.87 31.6255C228.864 31.6289 228.863 31.6274 228.858 31.6307C227.59 32.5437 226.556 34.0196 226.03 35.948C226.025 35.9674 226.021 35.9868 226.017 36.0063C225.991 36.1098 225.974 36.2142 225.96 36.3201C225.957 36.3334 225.66 38.1812 226.672 40.0476C227.735 42.0098 230.162 43.505 233.53 43.535C233.423 43.5297 235.444 43.5811 237.995 43.5848C239.073 42.6383 240.017 41.544 240.784 40.3253C240.857 40.2098 240.901 40.0788 240.915 39.943L242.12 27.6357C242.134 27.4997 242.116 27.3623 242.067 27.2345C241.681 26.2346 241.186 25.2895 240.603 24.4072C240.061 24.7268 239.549 25.0951 239.071 25.508C238.014 24.8157 236.833 24.3077 235.481 24.3077Z" fill="#EDA824"/>
<path d="M243.241 26.2298C241.335 26.2298 239.648 27.1922 238.632 28.6627C237.858 27.7205 236.687 27.1111 235.373 27.1111C233.058 27.1111 231.16 29.0087 231.16 31.3238C231.16 31.8469 231.267 32.3459 231.445 32.8103C231.137 32.9278 230.824 33.0774 230.514 33.3007C229.739 33.859 229.041 34.7942 228.666 36.1709C228.657 36.2076 228.651 36.2448 228.647 36.2824C228.647 36.2824 228.482 37.3953 229.087 38.5114C229.692 39.6275 231.134 40.6664 233.65 40.6889C233.673 40.6898 236.514 40.8039 240.091 40.7266C243.643 40.65 247.854 40.3888 250.861 39.6071C250.895 39.6049 252.171 39.5288 253.278 38.6401C253.839 38.1897 254.356 37.4983 254.549 36.574C254.742 35.6497 254.625 34.5374 254.115 33.21C254.105 33.1838 254.095 33.1582 254.082 33.133C254.082 33.133 253.58 32.0897 252.488 31.3498C251.942 30.98 251.215 30.7097 250.369 30.6708C249.872 30.6476 249.328 30.7169 248.759 30.8851C248.304 28.2495 246.003 26.2298 243.241 26.2298Z" fill="#D0E2EE"/>
<path d="M206.218 31.583C206.103 31.5825 205.988 31.605 205.881 31.6491C205.773 31.6932 205.676 31.7581 205.594 31.8401C205.512 31.922 205.447 32.0194 205.403 32.1265C205.359 32.2337 205.337 32.3484 205.337 32.4643C205.338 32.5796 205.361 32.6937 205.405 32.8001C205.45 32.9064 205.515 33.003 205.597 33.0843C205.678 33.1655 205.775 33.2299 205.882 33.2736C205.989 33.3174 206.103 33.3396 206.218 33.3391H208.798C208.913 33.3396 209.027 33.3174 209.134 33.2736C209.241 33.2299 209.338 33.1655 209.419 33.0843C209.501 33.003 209.566 32.9064 209.611 32.8001C209.655 32.6937 209.679 32.5796 209.679 32.4643C209.679 32.3484 209.657 32.2337 209.613 32.1265C209.569 32.0194 209.504 31.922 209.422 31.8401C209.34 31.7581 209.243 31.6932 209.135 31.6491C209.028 31.605 208.913 31.5825 208.798 31.583H206.218Z" fill="#ED7425"/>
<path d="M254.5 6C254.395 6.83851 253.5 6.32375 253.5 7.5C253.5 7.83918 253.495 9.78248 254.389 8.88889C254.878 8.3999 253.979 7.06008 255 7C256.402 6.91751 256.5 7.25031 257.278 8.25C258.448 9.75468 258.5 11.3828 258.5 13.25C258.5 15.7458 256.579 15 254.5 15" stroke="black" stroke-width="3" stroke-linecap="round"/>
</svg>
